<svg xmlns="http://www.w3.org/2000/svg" width="26" height="28" viewBox="0 0 26 28">
  <path id="Style" d="M12.76,28l-.061-.02a18.85,18.85,0,0,1-6.71-3.819A17.141,17.141,0,0,1,1.85,18.71,19.954,19.954,0,0,1,0,10V4.28L13,0,26,4.28V9.94a19.928,19.928,0,0,1-1.976,8.989,17.213,17.213,0,0,1-4.356,5.5,17.774,17.774,0,0,1-6.429,3.51L13,28ZM2,5.72V10C2,21.524,10.419,25.16,13,26c2.58-.84,11-4.474,11-16V5.72L13,2.05ZM9.46,16.7,7.17,14.41,8.59,13l2.29,2.29,6.53-6.54,1.42,1.42L12.29,16.7a1.994,1.994,0,0,1-2.831,0Z" fill="#efefef"/>
</svg>
