<svg id="clipboard" xmlns="http://www.w3.org/2000/svg" width="14" height="18" viewBox="0 0 14 18">
  <path id="Style" d="M1.909,18A1.921,1.921,0,0,1,0,16.072V3.215A1.921,1.921,0,0,1,1.909,1.286H3.933A1.914,1.914,0,0,1,5.727,0H8.273a1.915,1.915,0,0,1,1.795,1.286h2.023A1.921,1.921,0,0,1,14,3.215V16.072A1.921,1.921,0,0,1,12.091,18ZM1.273,3.215V16.072a.64.64,0,0,0,.636.643H12.091a.64.64,0,0,0,.636-.643V3.215a.641.641,0,0,0-.636-.643H10.182V3.857H3.818V2.571H1.909A.641.641,0,0,0,1.273,3.215ZM5.091,1.928v.643H8.91V1.928a.64.64,0,0,0-.637-.643H5.727A.64.64,0,0,0,5.091,1.928ZM3.818,12.857V11.571H7v1.286Zm0-2.571V9h6.364v1.286Z" fill="#c3002f"/>
</svg>
