<svg xmlns="http://www.w3.org/2000/svg" width="22" height="28.22" viewBox="0 0 22 28.22">
  <path id="Style" d="M11,28.22h0l-.569-.4a31.693,31.693,0,0,1-5.377-4.993A24.054,24.054,0,0,1,1.57,17.555,15.3,15.3,0,0,1,0,11,11,11,0,0,1,18.778,3.222,10.924,10.924,0,0,1,22,11c0,9.431-10,16.523-10.429,16.82l-.57.4ZM2,11c0,3.055,1.253,6.233,3.724,9.449A31.334,31.334,0,0,0,11,25.75a31.316,31.316,0,0,0,5.277-5.3C18.747,17.233,20,14.054,20,11A9,9,0,1,0,2,11Zm5,0a4,4,0,1,1,4,4A4,4,0,0,1,7,11Zm2,0a2,2,0,1,0,2-2A2,2,0,0,0,9,11Z" transform="translate(0 0)" fill="#8f0526"/>
</svg>
