<svg xmlns="http://www.w3.org/2000/svg" width="26.018" height="28" viewBox="0 0 26.018 28">
  <path id="Style" d="M12.087,28a2.866,2.866,0,0,1-2.86-2.85V23.57a10.049,10.049,0,0,1-2.61-1.52l-1.38.8A2.879,2.879,0,0,1,1.327,21.8L.4,20.19a2.865,2.865,0,0,1,1-3.91l1.38-.79a9.581,9.581,0,0,1,0-3L1.4,11.7a2.879,2.879,0,0,1-1-3.91l.93-1.661a2.86,2.86,0,0,1,3.911-1l1.38.8a10.053,10.053,0,0,1,2.61-1.52V2.86A2.864,2.864,0,0,1,12.087,0h1.86a2.868,2.868,0,0,1,2.859,2.83V4.48A10.049,10.049,0,0,1,19.417,6L20.8,5.2a2.878,2.878,0,0,1,3.91,1l.93,1.61a2.871,2.871,0,0,1,.286,2.173,2.84,2.84,0,0,1-1.336,1.737l-1.381.79a9.527,9.527,0,0,1,0,3l1.381.79a2.891,2.891,0,0,1,1.049,3.91l-.93,1.609a2.858,2.858,0,0,1-3.91,1.05l-1.381-.8a10.053,10.053,0,0,1-2.61,1.52v1.55A2.863,2.863,0,0,1,13.947,28Zm-5.22-8.38h0l.539.489a8.355,8.355,0,0,0,3.12,1.821l.7.22v3a.862.862,0,0,0,.86.86H14a.862.862,0,0,0,.86-.86v-3l.7-.22a8.355,8.355,0,0,0,3.12-1.821l.54-.49,2.63,1.52a.86.86,0,0,0,1.17-.32l.88-1.61a.86.86,0,0,0-.31-1.21l-2.57-1.48.15-.72a8.018,8.018,0,0,0,.21-1.8,8.551,8.551,0,0,0-.2-1.8l-.16-.72L23.587,10a.859.859,0,0,0,.31-1.2l-.93-1.61a.849.849,0,0,0-.52-.4.873.873,0,0,0-.65.08l-2.63,1.52-.54-.49a8.345,8.345,0,0,0-3.12-1.82l-.7-.22v-3A.861.861,0,0,0,13.947,2h-1.86a.861.861,0,0,0-.86.88v3l-.7.22a8.345,8.345,0,0,0-3.12,1.82l-.54.49L4.237,6.89a.859.859,0,0,0-1.17.32L2.137,8.82A.861.861,0,0,0,2.447,10l2.62,1.45-.15.72a8.018,8.018,0,0,0-.21,1.8,8.618,8.618,0,0,0,.2,1.8l.16.72L2.447,18a.859.859,0,0,0-.311,1.21l.931,1.61a.843.843,0,0,0,.519.4.876.876,0,0,0,.651-.08l2.629-1.52ZM9.017,14a4,4,0,1,1,4,4A4,4,0,0,1,9.017,14Zm2,0a2,2,0,1,0,2-2A2,2,0,0,0,11.017,14Z" transform="translate(-0.002)" fill="#8f0526"/>
</svg>
